<svg width="16" height="17" viewBox="0 0 16 17" fill="none" xmlns="http://www.w3.org/2000/svg">
<path d="M12.7834 14.2667L8.81678 10.3167C8.49456 10.5833 8.11123 10.7945 7.66678 10.95C7.22234 11.1056 6.75011 11.1833 6.25011 11.1833C4.99456 11.1833 3.93623 10.75 3.07511 9.88335C2.214 9.01668 1.78345 7.97224 1.78345 6.75001C1.78345 5.52779 2.21678 4.48335 3.08345 3.61668C3.95011 2.75001 4.99456 2.31668 6.21678 2.31668C7.45011 2.31668 8.49456 2.75001 9.35011 3.61668C10.2057 4.48335 10.6334 5.52779 10.6334 6.75001C10.6334 7.2389 10.5612 7.70001 10.4168 8.13335C10.2723 8.56668 10.0557 8.97779 9.76678 9.36668L13.7501 13.3167C13.8834 13.45 13.9501 13.6083 13.9501 13.7917C13.9501 13.975 13.8779 14.1333 13.7334 14.2667C13.6001 14.4 13.439 14.4667 13.2501 14.4667C13.0612 14.4667 12.9057 14.4 12.7834 14.2667ZM6.23345 9.85001C7.089 9.85001 7.81678 9.54724 8.41678 8.94168C9.01678 8.33613 9.31678 7.60557 9.31678 6.75001C9.31678 5.89446 9.01678 5.1639 8.41678 4.55835C7.81678 3.95279 7.089 3.65001 6.23345 3.65001C5.35567 3.65001 4.614 3.95279 4.00845 4.55835C3.40289 5.1639 3.10011 5.89446 3.10011 6.75001C3.10011 7.60557 3.40289 8.33613 4.00845 8.94168C4.614 9.54724 5.35567 9.85001 6.23345 9.85001Z" fill="#616161"/>
</svg>
