<svg width="97" height="19" viewBox="0 0 97 19" fill="none" xmlns="http://www.w3.org/2000/svg">
<path d="M2.41664 3.91666L3.64998 6.44999H5.81664L4.58331 3.91666H6.06664L7.29998 6.44999H9.46664L8.23331 3.91666H9.71664L10.95 6.44999H13.1166L11.8833 3.91666H13.5833C13.95 3.91666 14.2639 4.04721 14.525 4.30832C14.7861 4.56943 14.9166 4.88332 14.9166 5.24999V13.75C14.9166 14.1055 14.7861 14.4139 14.525 14.675C14.2639 14.9361 13.95 15.0667 13.5833 15.0667H2.41664C2.06109 15.0667 1.75275 14.9417 1.49164 14.6917C1.23053 14.4417 1.09998 14.1333 1.09998 13.7667V5.24999C1.09998 4.88332 1.23053 4.56943 1.49164 4.30832C1.75275 4.04721 2.06109 3.91666 2.41664 3.91666ZM2.41664 7.78332V13.75H13.5833V7.78332H2.41664Z" fill="#E53935"/>
<path d="M20.9659 15V6.27273H23.2727V7.8125H23.375C23.5568 7.30114 23.8598 6.89773 24.2841 6.60227C24.7083 6.30682 25.2159 6.15909 25.8068 6.15909C26.4053 6.15909 26.9148 6.30871 27.3352 6.60795C27.7557 6.90341 28.036 7.30492 28.1761 7.8125H28.267C28.4451 7.3125 28.767 6.91288 29.233 6.61364C29.7027 6.31061 30.2576 6.15909 30.8977 6.15909C31.7121 6.15909 32.3731 6.41856 32.8807 6.9375C33.392 7.45265 33.6477 8.18371 33.6477 9.13068V15H31.233V9.60795C31.233 9.12311 31.1042 8.75947 30.8466 8.51705C30.589 8.27462 30.267 8.15341 29.8807 8.15341C29.4413 8.15341 29.0985 8.29356 28.8523 8.57386C28.6061 8.85038 28.483 9.21591 28.483 9.67045V15H26.1364V9.55682C26.1364 9.12879 26.0133 8.78788 25.767 8.53409C25.5246 8.2803 25.2045 8.15341 24.8068 8.15341C24.5379 8.15341 24.2955 8.22159 24.0795 8.35795C23.8674 8.49053 23.6989 8.67803 23.5739 8.92045C23.4489 9.15909 23.3864 9.43939 23.3864 9.76136V15H20.9659ZM39.5028 15.1705C38.6203 15.1705 37.857 14.983 37.2131 14.608C36.5729 14.2292 36.0786 13.7027 35.7301 13.0284C35.3816 12.3504 35.2074 11.5644 35.2074 10.6705C35.2074 9.76894 35.3816 8.98106 35.7301 8.30682C36.0786 7.62879 36.5729 7.10227 37.2131 6.72727C37.857 6.34848 38.6203 6.15909 39.5028 6.15909C40.3854 6.15909 41.1468 6.34848 41.7869 6.72727C42.4309 7.10227 42.9271 7.62879 43.2756 8.30682C43.6241 8.98106 43.7983 9.76894 43.7983 10.6705C43.7983 11.5644 43.6241 12.3504 43.2756 13.0284C42.9271 13.7027 42.4309 14.2292 41.7869 14.608C41.1468 14.983 40.3854 15.1705 39.5028 15.1705ZM39.5142 13.2955C39.9157 13.2955 40.2509 13.1818 40.5199 12.9545C40.7888 12.7235 40.9915 12.4091 41.1278 12.0114C41.268 11.6136 41.3381 11.161 41.3381 10.6534C41.3381 10.1458 41.268 9.69318 41.1278 9.29545C40.9915 8.89773 40.7888 8.58333 40.5199 8.35227C40.2509 8.12121 39.9157 8.00568 39.5142 8.00568C39.1089 8.00568 38.768 8.12121 38.4915 8.35227C38.2188 8.58333 38.0123 8.89773 37.8722 9.29545C37.7358 9.69318 37.6676 10.1458 37.6676 10.6534C37.6676 11.161 37.7358 11.6136 37.8722 12.0114C38.0123 12.4091 38.2188 12.7235 38.4915 12.9545C38.768 13.1818 39.1089 13.2955 39.5142 13.2955ZM49.3153 15.1705C48.4328 15.1705 47.6695 14.983 47.0256 14.608C46.3854 14.2292 45.8911 13.7027 45.5426 13.0284C45.1941 12.3504 45.0199 11.5644 45.0199 10.6705C45.0199 9.76894 45.1941 8.98106 45.5426 8.30682C45.8911 7.62879 46.3854 7.10227 47.0256 6.72727C47.6695 6.34848 48.4328 6.15909 49.3153 6.15909C50.1979 6.15909 50.9593 6.34848 51.5994 6.72727C52.2434 7.10227 52.7396 7.62879 53.0881 8.30682C53.4366 8.98106 53.6108 9.76894 53.6108 10.6705C53.6108 11.5644 53.4366 12.3504 53.0881 13.0284C52.7396 13.7027 52.2434 14.2292 51.5994 14.608C50.9593 14.983 50.1979 15.1705 49.3153 15.1705ZM49.3267 13.2955C49.7282 13.2955 50.0634 13.1818 50.3324 12.9545C50.6013 12.7235 50.804 12.4091 50.9403 12.0114C51.0805 11.6136 51.1506 11.161 51.1506 10.6534C51.1506 10.1458 51.0805 9.69318 50.9403 9.29545C50.804 8.89773 50.6013 8.58333 50.3324 8.35227C50.0634 8.12121 49.7282 8.00568 49.3267 8.00568C48.9214 8.00568 48.5805 8.12121 48.304 8.35227C48.0313 8.58333 47.8248 8.89773 47.6847 9.29545C47.5483 9.69318 47.4801 10.1458 47.4801 10.6534C47.4801 11.161 47.5483 11.6136 47.6847 12.0114C47.8248 12.4091 48.0313 12.7235 48.304 12.9545C48.5805 13.1818 48.9214 13.2955 49.3267 13.2955ZM59.1278 15.1705C58.2453 15.1705 57.482 14.983 56.8381 14.608C56.1979 14.2292 55.7036 13.7027 55.3551 13.0284C55.0066 12.3504 54.8324 11.5644 54.8324 10.6705C54.8324 9.76894 55.0066 8.98106 55.3551 8.30682C55.7036 7.62879 56.1979 7.10227 56.8381 6.72727C57.482 6.34848 58.2453 6.15909 59.1278 6.15909C60.0104 6.15909 60.7718 6.34848 61.4119 6.72727C62.0559 7.10227 62.5521 7.62879 62.9006 8.30682C63.2491 8.98106 63.4233 9.76894 63.4233 10.6705C63.4233 11.5644 63.2491 12.3504 62.9006 13.0284C62.5521 13.7027 62.0559 14.2292 61.4119 14.608C60.7718 14.983 60.0104 15.1705 59.1278 15.1705ZM59.1392 13.2955C59.5407 13.2955 59.8759 13.1818 60.1449 12.9545C60.4138 12.7235 60.6165 12.4091 60.7528 12.0114C60.893 11.6136 60.9631 11.161 60.9631 10.6534C60.9631 10.1458 60.893 9.69318 60.7528 9.29545C60.6165 8.89773 60.4138 8.58333 60.1449 8.35227C59.8759 8.12121 59.5407 8.00568 59.1392 8.00568C58.7339 8.00568 58.393 8.12121 58.1165 8.35227C57.8438 8.58333 57.6373 8.89773 57.4972 9.29545C57.3608 9.69318 57.2926 10.1458 57.2926 10.6534C57.2926 11.161 57.3608 11.6136 57.4972 12.0114C57.6373 12.4091 57.8438 12.7235 58.1165 12.9545C58.393 13.1818 58.7339 13.2955 59.1392 13.2955ZM72.8523 6.27273L69.8011 15H67.0739L64.0227 6.27273H66.5795L68.392 12.517H68.483L70.2898 6.27273H72.8523ZM74.0909 15V6.27273H76.5114V15H74.0909ZM75.3068 5.14773C74.947 5.14773 74.6383 5.02841 74.3807 4.78977C74.1269 4.54735 74 4.25758 74 3.92045C74 3.58712 74.1269 3.30114 74.3807 3.0625C74.6383 2.82008 74.947 2.69886 75.3068 2.69886C75.6667 2.69886 75.9735 2.82008 76.2273 3.0625C76.4848 3.30114 76.6136 3.58712 76.6136 3.92045C76.6136 4.25758 76.4848 4.54735 76.2273 4.78977C75.9735 5.02841 75.6667 5.14773 75.3068 5.14773ZM82.4276 15.1705C81.5298 15.1705 80.7571 14.9886 80.1094 14.625C79.4654 14.2576 78.9692 13.7386 78.6207 13.0682C78.2723 12.3939 78.098 11.5966 78.098 10.6761C78.098 9.77841 78.2723 8.99053 78.6207 8.3125C78.9692 7.63447 79.4598 7.10606 80.0923 6.72727C80.7287 6.34848 81.4749 6.15909 82.331 6.15909C82.9067 6.15909 83.4427 6.25189 83.9389 6.4375C84.4389 6.61932 84.8745 6.89394 85.2457 7.26136C85.6207 7.62879 85.9124 8.09091 86.1207 8.64773C86.3291 9.20076 86.4332 9.84848 86.4332 10.5909V11.2557H79.0639V9.75568H84.1548C84.1548 9.4072 84.0791 9.09848 83.9276 8.82955C83.776 8.56061 83.5658 8.35038 83.2969 8.19886C83.0317 8.04356 82.723 7.96591 82.3707 7.96591C82.0033 7.96591 81.6776 8.05114 81.3935 8.22159C81.1132 8.38826 80.8935 8.61364 80.7344 8.89773C80.5753 9.17803 80.4938 9.49053 80.4901 9.83523V11.2614C80.4901 11.6932 80.5696 12.0663 80.7287 12.3807C80.8916 12.6951 81.1207 12.9375 81.4162 13.108C81.7116 13.2784 82.062 13.3636 82.4673 13.3636C82.7363 13.3636 82.9825 13.3258 83.206 13.25C83.4295 13.1742 83.6207 13.0606 83.7798 12.9091C83.9389 12.7576 84.0601 12.572 84.1435 12.3523L86.3821 12.5C86.2685 13.0379 86.0355 13.5076 85.6832 13.9091C85.3348 14.3068 84.884 14.6174 84.331 14.8409C83.7817 15.0606 83.1473 15.1705 82.4276 15.1705ZM95.2741 8.76136L93.0582 8.89773C93.0204 8.70833 92.9389 8.53788 92.8139 8.38636C92.6889 8.23106 92.5241 8.10795 92.3196 8.01705C92.1188 7.92235 91.8783 7.875 91.598 7.875C91.223 7.875 90.9067 7.95455 90.6491 8.11364C90.3916 8.26894 90.2628 8.47727 90.2628 8.73864C90.2628 8.94697 90.3461 9.12311 90.5128 9.26705C90.6795 9.41098 90.9654 9.52652 91.3707 9.61364L92.9503 9.93182C93.7988 10.1061 94.4313 10.3864 94.848 10.7727C95.2647 11.1591 95.473 11.6667 95.473 12.2955C95.473 12.8674 95.3045 13.3693 94.9673 13.8011C94.634 14.233 94.1757 14.5701 93.5923 14.8125C93.0128 15.0511 92.3442 15.1705 91.5866 15.1705C90.4313 15.1705 89.5109 14.9299 88.8253 14.4489C88.1435 13.964 87.7438 13.3049 87.6264 12.4716L90.0071 12.3466C90.0791 12.6989 90.2533 12.9678 90.5298 13.1534C90.8063 13.3352 91.1605 13.4261 91.5923 13.4261C92.0166 13.4261 92.3575 13.3447 92.6151 13.1818C92.8764 13.0152 93.009 12.8011 93.0128 12.5398C93.009 12.3201 92.9162 12.1402 92.7344 12C92.5526 11.8561 92.2723 11.7462 91.8935 11.6705L90.3821 11.3693C89.5298 11.1989 88.8954 10.9034 88.4787 10.483C88.0658 10.0625 87.8594 9.52652 87.8594 8.875C87.8594 8.31439 88.0109 7.83144 88.3139 7.42614C88.6207 7.02083 89.0507 6.70833 89.6037 6.48864C90.1605 6.26894 90.812 6.15909 91.5582 6.15909C92.6605 6.15909 93.5279 6.39205 94.1605 6.85795C94.7969 7.32386 95.1681 7.95833 95.2741 8.76136Z" fill="#202020"/>
</svg>
