<svg width="12" height="13" viewBox="0 0 12 13" fill="none" xmlns="http://www.w3.org/2000/svg">
<path d="M7.8375 8.9125L8.4 8.35L6.4125 6.35V3.8375H5.6625V6.65L7.8375 8.9125ZM6 11.5C5.31667 11.5 4.67083 11.3687 4.0625 11.1062C3.45417 10.8437 2.92292 10.4854 2.46875 10.0312C2.01458 9.57708 1.65625 9.04583 1.39375 8.4375C1.13125 7.82917 1 7.18333 1 6.5C1 5.81667 1.13125 5.17083 1.39375 4.5625C1.65625 3.95417 2.01458 3.42292 2.46875 2.96875C2.92292 2.51458 3.45417 2.15625 4.0625 1.89375C4.67083 1.63125 5.31667 1.5 6 1.5C6.68333 1.5 7.32917 1.63125 7.9375 1.89375C8.54583 2.15625 9.07708 2.51458 9.53125 2.96875C9.98542 3.42292 10.3437 3.95417 10.6062 4.5625C10.8687 5.17083 11 5.81667 11 6.5C11 7.18333 10.8687 7.82917 10.6062 8.4375C10.3437 9.04583 9.98542 9.57708 9.53125 10.0312C9.07708 10.4854 8.54583 10.8437 7.9375 11.1062C7.32917 11.3687 6.68333 11.5 6 11.5Z" fill="#E53935"/>
</svg>
