<svg width="16" height="16" viewBox="0 0 16 16" fill="none" xmlns="http://www.w3.org/2000/svg">
<path d="M5.38326 12.5833L7.99992 11.0167L10.6166 12.6L9.91659 9.63332L12.2166 7.63332L9.18326 7.36666L7.99992 4.56666L6.81659 7.34999L3.78326 7.61666L6.08326 9.61666L5.38326 12.5833ZM7.99992 12.1833L4.89992 14.05C4.81103 14.1055 4.71659 14.1305 4.61659 14.125C4.51659 14.1194 4.4277 14.0889 4.34992 14.0333C4.27215 13.9778 4.21381 13.9055 4.17492 13.8167C4.13603 13.7278 4.1277 13.6278 4.14992 13.5167L4.96659 9.98333L2.23326 7.59999C2.14437 7.52221 2.09159 7.4361 2.07492 7.34166C2.05826 7.24721 2.06103 7.15555 2.08326 7.06666C2.10548 6.97777 2.15548 6.90277 2.23326 6.84166C2.31103 6.78055 2.40548 6.74444 2.51659 6.73333L6.13326 6.41666L7.53326 3.08333C7.5777 2.98333 7.64437 2.90833 7.73326 2.85832C7.82215 2.80833 7.91103 2.78333 7.99992 2.78333C8.08881 2.78333 8.1777 2.80833 8.26659 2.85832C8.35548 2.90833 8.42215 2.98333 8.46659 3.08333L9.86659 6.41666L13.4833 6.73333C13.5944 6.74444 13.6888 6.78055 13.7666 6.84166C13.8444 6.90277 13.8944 6.97777 13.9166 7.06666C13.9388 7.15555 13.9416 7.24721 13.9249 7.34166C13.9083 7.4361 13.8555 7.52221 13.7666 7.59999L11.0333 9.98333L11.8499 13.5167C11.8721 13.6278 11.8638 13.7278 11.8249 13.8167C11.786 13.9055 11.7277 13.9778 11.6499 14.0333C11.5721 14.0889 11.4833 14.1194 11.3833 14.125C11.2833 14.1305 11.1888 14.1055 11.0999 14.05L7.99992 12.1833Z" fill="#FDD835"/>
</svg>
